<svg width="800" height="500" xmlns="http://www.w3.org/2000/svg"><rect width="800" height="500" fill="#ffffff"/><text x="400" y="30" text-anchor="middle" font-family="Arial" font-size="20" font-weight="bold">Market Share Distribution</text><path d="M400,250 L600,250 A200,200 0 0,1 283,411 L400,250 Z" fill="#3498db"/><text x="463" y="374" text-anchor="middle" font-family="Arial" font-size="12" fill="white">35.0%</text><path d="M400,250 L283,411 A200,200 0 0,1 239,133 L400,250 Z" fill="#e74c3c"/><text x="262" y="271" text-anchor="middle" font-family="Arial" font-size="12" fill="white">25.0%</text><path d="M400,250 L239,133 A200,200 0 0,1 461,60 L400,250 Z" fill="#2ecc71"/><text x="357" y="117" text-anchor="middle" font-family="Arial" font-size="12" fill="white">20.0%</text><path d="M400,250 L461,60 A200,200 0 0,1 590,189 L400,250 Z" fill="#f39c12"/><text x="498" y="152" text-anchor="middle" font-family="Arial" font-size="12" fill="white">15.0%</text><path d="M400,250 L590,189 A200,200 0 0,1 600,250 L400,250 Z" fill="#9b59b6"/><text x="538" y="229" text-anchor="middle" font-family="Arial" font-size="12" fill="white">5.0%</text><rect x="770" y="50" width="15" height="15" fill="#3498db"/><text x="790" y="62" font-family="Arial" font-size="12">Product A</text><rect x="770" y="75" width="15" height="15" fill="#e74c3c"/><text x="790" y="87" font-family="Arial" font-size="12">Product B</text><rect x="770" y="100" width="15" height="15" fill="#2ecc71"/><text x="790" y="112" font-family="Arial" font-size="12">Product C</text><rect x="770" y="125" width="15" height="15" fill="#f39c12"/><text x="790" y="137" font-family="Arial" font-size="12">Product D</text><rect x="770" y="150" width="15" height="15" fill="#9b59b6"/><text x="790" y="162" font-family="Arial" font-size="12">Others</text></svg>