<svg width="800" height="500" xmlns="http://www.w3.org/2000/svg"><rect width="800" height="500" fill="#ffffff"/><text x="400" y="30" text-anchor="middle" font-family="Arial" font-size="20" font-weight="bold">Monthly Website Traffic</text><line x1="50" y1="450" x2="750" y2="450" stroke="black" stroke-width="2"/><line x1="50" y1="50" x2="50" y2="450" stroke="black" stroke-width="2"/><path d="M50,273 L113,263 L177,240 L240,219 L304,192 L368,208 L431,218 L495,198 L559,178 L622,145 L686,122 L750,87" fill="none" stroke="#3498db" stroke-width="3"/><circle cx="50" cy="273" r="5" fill="#3498db"/><circle cx="113" cy="263" r="5" fill="#3498db"/><circle cx="177" cy="240" r="5" fill="#3498db"/><circle cx="240" cy="219" r="5" fill="#3498db"/><circle cx="304" cy="192" r="5" fill="#3498db"/><circle cx="368" cy="208" r="5" fill="#3498db"/><circle cx="431" cy="218" r="5" fill="#3498db"/><circle cx="495" cy="198" r="5" fill="#3498db"/><circle cx="559" cy="178" r="5" fill="#3498db"/><circle cx="622" cy="145" r="5" fill="#3498db"/><circle cx="686" cy="122" r="5" fill="#3498db"/><circle cx="750" cy="87" r="5" fill="#3498db"/><text x="50" y="470" text-anchor="middle" font-family="Arial" font-size="12">Jan</text><text x="113" y="470" text-anchor="middle" font-family="Arial" font-size="12">Feb</text><text x="177" y="470" text-anchor="middle" font-family="Arial" font-size="12">Mar</text><text x="240" y="470" text-anchor="middle" font-family="Arial" font-size="12">Apr</text><text x="304" y="470" text-anchor="middle" font-family="Arial" font-size="12">May</text><text x="368" y="470" text-anchor="middle" font-family="Arial" font-size="12">Jun</text><text x="431" y="470" text-anchor="middle" font-family="Arial" font-size="12">Jul</text><text x="495" y="470" text-anchor="middle" font-family="Arial" font-size="12">Aug</text><text x="559" y="470" text-anchor="middle" font-family="Arial" font-size="12">Sep</text><text x="622" y="470" text-anchor="middle" font-family="Arial" font-size="12">Oct</text><text x="686" y="470" text-anchor="middle" font-family="Arial" font-size="12">Nov</text><text x="750" y="470" text-anchor="middle" font-family="Arial" font-size="12">Dec</text></svg>